<?xml version="1.0" standalone="no"?>
<!DOCTYPE svg PUBLIC "-//W3C//DTD SVG 20010904//EN"
 "http://www.w3.org/TR/2001/REC-SVG-20010904/DTD/svg10.dtd">
<svg version="1.0" xmlns="http://www.w3.org/2000/svg"
 width="463.000000pt" height="369.000000pt" viewBox="0 0 463.000000 369.000000"
 preserveAspectRatio="xMidYMid meet">

<g transform="translate(0.000000,369.000000) scale(0.100000,-0.100000)"
fill="#000000" stroke="none">
<path d="M0 1855 l0 -1835 2305 0 2305 0 0 1835 0 1835 -2305 0 -2305 0 0
-1835z m2299 715 c1 -13 -25 -15 -169 -17 l-170 -1 17 29 c12 19 23 27 33 23
8 -3 71 -6 140 -6 96 0 125 3 129 13 5 15 19 -14 20 -41z m-356 13 c-9 -23
-23 -33 -51 -33 -14 0 -26 -8 -31 -24 -5 -13 -19 -26 -31 -29 -19 -5 -21 -3
-14 26 11 54 39 75 101 76 27 1 31 -2 26 -16z m814 2 c24 -17 43 -71 43 -125
0 -25 9 -43 33 -69 l32 -34 -56 39 c-53 36 -57 42 -62 87 -4 26 -9 52 -12 57
-4 6 -86 10 -205 10 -205 0 -210 1 -210 41 0 5 88 9 208 9 170 0 211 -3 229
-15z m-801 -81 c-4 -9 -9 -15 -11 -12 -3 3 -3 13 1 22 4 9 9 15 11 12 3 -3 3
-13 -1 -22z m613 -37 c15 -15 44 -28 71 -32 135 -21 237 -113 256 -232 6 -40
-10 -138 -25 -147 -4 -3 -5 24 -3 58 3 45 -1 72 -12 94 -23 44 -36 40 -36 -10
0 -29 -7 -49 -22 -65 -20 -22 -28 -23 -163 -23 -145 0 -165 -5 -165 -41 0 -9
10 -24 23 -32 20 -15 5 -16 -193 -16 -159 0 -209 3 -193 11 28 13 36 34 23 58
-9 18 -25 20 -162 22 -199 4 -193 -3 -177 193 7 77 16 146 22 153 15 18 47 15
46 -5 0 -10 -6 -76 -13 -146 -6 -70 -9 -132 -6 -137 4 -7 177 -11 466 -13
l459 -2 3 57 c2 32 -2 66 -7 77 -10 18 -116 61 -151 61 -8 0 -21 -9 -27 -20
-23 -35 -68 -52 -112 -40 -21 5 -44 17 -51 24 -10 13 -3 14 44 9 l56 -6 15 37
c14 32 14 40 0 72 l-15 36 -57 -4 -56 -5 28 25 c23 20 36 23 68 19 22 -3 51
-16 66 -30z m-315 -92 c-4 -8 -11 -12 -16 -9 -6 4 -5 10 3 15 19 12 19 11 13
-6z m86 -16 c0 -5 -4 -9 -8 -9 -5 0 -9 7 -9 15 0 8 4 12 9 9 4 -3 8 -9 8 -15z
m-120 -40 c0 -5 4 -8 9 -5 5 4 17 3 27 -1 15 -6 15 -7 -4 -14 -16 -6 -20 -13
-15 -26 6 -16 5 -16 -10 -4 -15 12 -17 12 -11 -4 5 -13 4 -16 -5 -11 -7 5 -11
17 -8 27 3 11 1 19 -4 19 -4 0 -6 7 -3 15 7 17 24 20 24 4z m75 -29 c-3 -5
-18 -10 -33 -9 l-27 1 25 8 c35 11 42 11 35 0z m21 -15 c-11 -8 -31 -14 -45
-14 l-26 2 25 4 c14 3 29 9 35 14 5 5 14 9 20 9 5 0 1 -7 -9 -15z m557 -264
c18 -36 11 -67 -20 -91 -43 -34 -103 1 -103 60 0 64 96 89 123 31z m-2224
-456 c24 -23 2 -38 -37 -24 -85 29 -146 -77 -82 -141 27 -27 84 -26 110 0 28
28 25 38 -12 42 -22 2 -34 9 -36 21 -3 14 5 17 53 17 65 0 75 -12 50 -64 -22
-46 -57 -68 -111 -68 -102 0 -154 103 -98 190 32 49 126 65 163 27z m294 2
c69 -163 86 -212 76 -221 -7 -8 -16 -3 -31 17 -17 24 -26 27 -73 27 -46 0 -55
-3 -70 -26 -12 -19 -20 -23 -28 -15 -11 11 38 151 74 210 18 30 42 33 52 8z
m330 -8 c9 -12 17 -34 17 -51 0 -16 7 -43 16 -60 19 -36 12 -73 -16 -88 -11
-6 -51 -10 -88 -8 l-67 3 -3 104 c-3 127 2 136 73 127 34 -4 56 -12 68 -27z
m296 -3 c30 -31 32 -76 3 -115 -18 -25 -19 -31 -7 -47 36 -48 3 -59 -40 -14
-35 37 -65 40 -65 6 0 -25 -22 -51 -33 -39 -4 3 -7 57 -7 119 0 80 4 114 13
118 6 3 34 4 62 1 35 -3 56 -12 74 -29z m166 -14 c-3 -8 -5 -54 -5 -103 0 -69
-3 -89 -14 -89 -19 0 -26 32 -26 131 0 92 13 125 38 92 7 -10 10 -24 7 -31z
m239 42 c26 -10 19 -34 -11 -35 -16 -1 -35 -2 -43 -3 -8 -2 -23 -3 -33 -4 -14
-2 -18 -9 -15 -29 3 -25 8 -28 43 -31 76 -6 69 -42 -8 -42 -36 0 -38 -2 -35
-27 3 -27 6 -28 61 -31 42 -2 57 -7 57 -18 0 -12 -14 -14 -77 -12 l-78 3 -3
105 c-2 90 0 107 15 117 17 13 99 18 127 7z m164 -114 l-3 -85 58 -5 c83 -7
76 -24 -12 -28 -53 -2 -77 1 -82 10 -14 21 -11 202 3 216 25 25 39 -17 36
-108z m390 62 c2 -29 6 -52 10 -52 4 0 32 25 62 55 58 59 67 64 77 39 4 -10
-10 -32 -41 -63 l-46 -47 45 -49 c24 -28 44 -53 45 -57 1 -21 -39 -3 -77 34
-36 35 -44 39 -58 28 -8 -7 -15 -25 -15 -41 0 -22 -5 -29 -20 -29 -19 0 -20 7
-20 113 0 63 3 117 7 121 16 16 28 -4 31 -52z m386 36 c29 -46 87 -201 81
-217 -6 -13 -10 -12 -29 12 -19 23 -29 27 -73 27 -44 0 -54 -4 -71 -27 -16
-21 -24 -25 -32 -17 -9 9 -1 38 31 115 56 139 65 150 93 107z m333 -5 c69 -46
68 -151 -2 -197 -18 -12 -42 -16 -83 -14 l-57 3 -3 104 c-3 126 2 136 71 127
27 -4 60 -14 74 -23z m188 -94 c0 -100 -2 -114 -17 -117 -16 -3 -18 7 -18 111
0 62 3 117 7 121 21 21 28 -8 28 -115z m154 38 c14 -42 28 -77 33 -77 4 0 17
34 29 74 20 68 38 94 58 82 4 -3 18 -39 31 -80 13 -42 26 -76 30 -76 4 0 17
34 30 76 25 79 35 93 52 76 13 -13 -48 -216 -69 -234 -19 -15 -28 -4 -56 70
-13 35 -28 63 -32 63 -5 0 -19 -27 -30 -60 -23 -70 -39 -91 -56 -74 -16 16
-80 215 -74 231 11 29 31 2 54 -71z m460 70 c22 -27 92 -210 86 -226 -5 -13
-10 -11 -29 12 -19 23 -29 27 -73 27 -44 0 -54 -4 -71 -27 -15 -20 -24 -25
-32 -17 -7 8 1 40 31 115 53 132 63 146 88 116z"/>
<path d="M2780 2006 c-15 -19 -9 -56 11 -69 9 -5 28 -7 42 -3 52 13 42 86 -12
86 -16 0 -34 -7 -41 -14z"/>
<path d="M894 1465 c-19 -46 -19 -45 21 -45 19 0 35 5 35 10 0 14 -29 70 -36
70 -3 0 -12 -16 -20 -35z"/>
<path d="M1188 1532 c-22 -4 -24 -50 -3 -58 8 -4 27 -3 41 0 50 13 13 70 -38
58z"/>
<path d="M1170 1400 l0 -31 53 3 c48 3 52 5 52 28 0 23 -4 25 -52 28 l-53 3 0
-31z"/>
<path d="M1473 1533 c-8 -3 -13 -23 -13 -49 l0 -44 40 0 c34 0 42 4 50 26 11
29 -2 64 -25 64 -7 0 -19 2 -27 4 -7 3 -19 2 -25 -1z"/>
<path d="M2882 1487 c-6 -6 -13 -24 -17 -40 -7 -26 -5 -27 29 -27 20 0 36 2
36 4 0 8 -30 76 -34 76 -2 0 -8 -6 -14 -13z"/>
<path d="M3152 1531 c-9 -5 -12 -29 -10 -82 l3 -74 39 1 c98 4 103 134 6 157
-14 4 -31 3 -38 -2z"/>
<path d="M4011 1469 c-16 -46 -15 -49 24 -49 19 0 35 2 35 4 0 14 -32 76 -39
76 -5 0 -14 -14 -20 -31z"/>
</g>
</svg>
